<svg width="24" height="24" viewBox="0 0 24 24" fill="none" xmlns="http://www.w3.org/2000/svg">
<path d="M12 18C11.5598 18.0001 11.1318 17.8549 10.7825 17.5869C10.4332 17.3189 10.182 16.9432 10.068 16.518" stroke="white" stroke-linecap="round"/>
<path d="M10.424 4.67899C11.055 3.60599 11.371 3.06899 11.822 2.98899C11.9397 2.9677 12.0603 2.9677 12.178 2.98899C12.629 3.06899 12.945 3.60599 13.576 4.67899L15.244 7.51499C16.4096 9.49711 17.3192 11.619 17.951 13.83C18.978 17.423 16.281 21 12.543 21H11.457C7.72 21 5.022 17.423 6.049 13.83C6.68077 11.619 7.59036 9.49711 8.756 7.51499L10.424 4.67899Z" stroke="white"/>
</svg>
